<svg width="156" height="37" viewBox="0 0 156 37" fill="none" xmlns="http://www.w3.org/2000/svg">
<g clip-path="url(#clip0_1_6)">
<path d="M42.9102 0.535175C42.6914 0.984394 42.3438 1.73439 42.1602 2.14846C42.1016 2.27346 41.4102 3.08596 40.8281 3.71096C40.293 4.28127 39.6055 4.93361 39.1523 5.29299C38.8633 5.52346 38.8086 5.59377 38.5508 6.02346C38.3945 6.28908 38.168 6.65627 38.043 6.84377C37.7305 7.30861 36.9336 8.25393 36.6172 8.53127C36.2852 8.82814 36.0312 9.17189 35.9531 9.43361C35.9219 9.54689 35.8711 9.66408 35.8398 9.68752C35.8086 9.71486 35.6992 9.85158 35.5977 9.99611C35.1289 10.668 34.9648 10.8242 34.6875 10.8789C34.4961 10.918 34.1914 11.0742 33.9961 11.2383C33.9023 11.3125 33.8281 11.3633 33.8281 11.3477C33.8281 11.336 33.7773 11.3516 33.7148 11.3867C33.4648 11.5156 32.8828 11.6446 32.0586 11.7578C31.1836 11.875 30.7344 11.9688 30.5234 12.0781C30.4609 12.1094 30.2617 12.2188 30.0781 12.3164C29.5117 12.6211 28.9492 12.7735 27.7539 12.9492C26.4102 13.1446 25.6992 13.3164 24.8906 13.6367C24.7266 13.7031 24.3008 13.8438 23.9453 13.9453C23.1914 14.168 22.7305 14.3321 22.1094 14.6016C21.4453 14.8906 21.0547 15.0196 20.1602 15.2383C19.3242 15.4453 19.1445 15.5196 18.3125 15.9805C18.125 16.086 17.7539 16.2813 17.4922 16.4141C17.2266 16.5469 16.8906 16.7305 16.7422 16.8242C16.418 17.0313 15.793 17.6328 15.418 18.0938C15.2656 18.2852 15.1289 18.4375 15.1094 18.4375C15.0352 18.4375 14.3594 19.2578 14.25 19.4844C14.0586 19.8711 13.7695 20.1016 11.9727 21.293C11.5234 21.5938 10.9297 21.9922 10.6562 22.1797C9.64844 22.8711 8.36328 23.5313 6.77734 24.1719C5.89844 24.5235 3.66016 25.3438 2.48047 25.7422C2.05078 25.8867 1.51953 26.086 1.30078 26.1836C0.863281 26.375 0.328125 26.7149 0.125 26.9258L-0.0078125 27.0625L0.222656 27.1289C0.347656 27.1641 0.910156 27.3438 1.47656 27.5235C3.13672 28.0547 3.42188 28.1172 4.62109 28.2071C7.80859 28.4414 10.5898 27.4336 13.75 24.9024C14.4688 24.3281 14.5469 24.25 14.875 23.8164C15.125 23.4922 15.7812 22.7617 15.8047 22.7852C15.8125 22.793 15.9805 23.3242 16.1758 23.9688C16.7734 25.9492 16.8867 26.4805 16.8047 26.9219C16.7461 27.25 16.5156 27.7031 16.1562 28.2031C15.9922 28.4297 15.7773 28.7696 15.6758 28.9649C15.4922 29.3086 15.4883 29.3242 15.4883 29.668C15.4883 29.9922 15.5 30.043 15.6289 30.3164C15.707 30.4805 15.8945 30.7969 16.0469 31.0196C16.3555 31.4844 16.3984 31.5625 16.8516 32.5117C17.0703 32.9688 17.2422 33.2696 17.3555 33.4024C17.4492 33.5078 17.6797 33.8516 17.8711 34.168C18.0586 34.4805 18.3008 34.8399 18.4062 34.9649C18.5664 35.1602 18.625 35.1992 18.8164 35.2539C19.1328 35.3438 19.3398 35.5078 19.8047 36.0352C20.0234 36.2852 20.25 36.5078 20.3086 36.5313C20.5469 36.6211 20.9453 36.6133 21.5234 36.5078C21.8359 36.4492 22.2148 36.3867 22.3711 36.3711C22.7109 36.3321 22.8477 36.2422 22.9766 35.9844C23.1016 35.7305 23.125 35.0899 23.0195 34.7461C22.9492 34.5196 22.9414 34.5117 22.7539 34.4453C22.6445 34.4102 22.3828 34.3633 22.168 34.3399C21.3906 34.25 21.3867 34.25 20.6367 33.7149C20.0664 33.3047 19.8203 33.0625 19.7617 32.8399C19.6992 32.6016 19.5547 32.3321 19.2734 31.9297C18.9766 31.5 18.8711 31.2735 18.8398 30.9727L18.8164 30.7422L18.9883 30.5703C19.1797 30.3789 19.3086 30.3321 19.8125 30.2696C20.2578 30.2188 20.5234 30.1367 20.6719 30.0078C20.7422 29.9453 20.9844 29.7656 21.2109 29.6016C21.6484 29.2891 22.4492 28.5703 22.9141 28.0821C23.5195 27.4375 24.207 26.4844 24.5156 25.8594C25.3516 24.1563 25.3594 24.1406 25.4648 24.1094C25.5195 24.0938 25.7422 24.0821 25.957 24.086C26.3633 24.0899 26.5 24.1172 27.3047 24.3594C27.7188 24.4883 28.0664 24.5703 28.7578 24.7071C29.5977 24.875 31.2305 25.0117 32.4844 25.0117L33.5039 25.0156L33.5547 26.1094C33.5859 26.7149 33.6133 27.5352 33.6172 27.9414C33.625 28.3438 33.6445 28.7969 33.668 28.9453C33.6914 29.0938 33.7109 29.4141 33.7109 29.6641C33.7109 30.1172 33.7734 30.5469 33.8828 30.8516C33.9297 30.9844 33.9453 31.1719 33.9414 31.6719C33.9336 32.3086 33.9375 32.3321 34.0547 32.6485C34.1211 32.836 34.3086 33.1914 34.4883 33.4727C34.8711 34.0781 34.9766 34.3086 35.0547 34.6875C35.168 35.2266 35.3945 35.5469 35.6602 35.5469C35.7109 35.5469 35.8516 35.5938 35.9688 35.6485C36.3008 35.8047 36.8203 35.8985 37.3633 35.9024C38.0625 35.9024 38.5117 35.7891 38.8125 35.5313C38.8945 35.461 39.0117 35.3906 39.0703 35.375C39.2188 35.3399 39.3359 35.2031 39.3359 35.0703C39.3359 34.9492 39.2188 34.6914 39.1328 34.6211C39.0508 34.5547 37.9062 33.9883 37.6758 33.9024C37.3438 33.7774 37.1484 33.5156 37.0898 33.1094C37.0703 33 37.0078 32.836 36.9453 32.7383C36.7539 32.4336 36.6719 32.1094 36.6523 31.543C36.6289 30.9453 36.6836 30.5117 36.9336 29.211C37.0312 28.7266 37.1328 28.1016 37.1641 27.8242C37.1953 27.5469 37.293 27.0469 37.3828 26.6992C37.4727 26.3555 37.6016 25.836 37.6758 25.5469C37.8203 24.9766 37.9375 24.6172 38.1055 24.2188C38.1992 23.9922 38.3008 23.875 38.9805 23.1836C39.4023 22.7539 39.9062 22.2188 40.0977 21.9922C40.2891 21.7656 40.7812 21.2383 41.1914 20.8203C42.1719 19.8125 42.2344 19.6875 42.4648 18.3711C42.5312 17.9766 42.6172 17.6133 42.6758 17.4883C42.7266 17.3711 42.8789 16.9336 43.0117 16.5196C43.3203 15.5508 43.5039 15.1055 43.7695 14.668C44.0078 14.2696 44.0273 14.2266 44.1562 13.7578C44.3516 13.0586 44.3867 12.7696 44.3594 12.0313L44.3359 11.3477L44.4453 11.1133C44.5078 10.9844 44.6406 10.75 44.7383 10.5938L44.9219 10.3125H45.2109C45.3711 10.3125 45.6055 10.2891 45.7305 10.2578C45.8555 10.2266 46.2578 10.1914 46.6211 10.1758C47.5273 10.1406 47.7656 10.1016 48.0977 9.94143C48.2539 9.86721 48.4062 9.79299 48.4375 9.77346C48.4688 9.75393 48.6484 9.66408 48.8359 9.57033C49.2305 9.37502 49.3086 9.3008 49.6875 8.75393C50.0117 8.28518 50.0508 8.14846 49.9258 7.90236C49.832 7.71486 49.6367 7.5508 49.3164 7.39064C49.1875 7.32814 48.9414 7.19533 48.7695 7.09377C48.3945 6.87502 47.9531 6.70314 47.5664 6.61721C46.9883 6.4883 46.8203 6.39455 46.5938 6.06252C46.5273 5.96486 46.4219 5.76174 46.3672 5.6133C46.2188 5.23439 46.0742 5.0508 45.6562 4.70705C45.457 4.53908 45.1641 4.26564 45.0039 4.09377C44.6914 3.75783 44.3633 3.50783 44.0156 3.33596L43.7969 3.23049L43.7539 2.93361C43.7305 2.76955 43.6836 2.34768 43.6523 1.99221C43.5898 1.23439 43.457 0.347675 43.3945 0.222675C43.3359 0.1133 43.2383 1.90735e-05 43.2031 1.90735e-05C43.1836 1.90735e-05 43.0547 0.242207 42.9102 0.535175Z" fill="#F0A04B"/>
</g>
<path d="M61.2207 20.2617C61.2207 19.6107 61.1914 19.1647 61.1328 18.9238C61.0742 18.6764 60.9668 18.5527 60.8105 18.5527C60.7129 18.5527 60.625 18.5853 60.5469 18.6504C60.5599 18.7676 60.5794 18.9238 60.6055 19.1191C60.6315 19.3145 60.6445 19.7311 60.6445 20.3691V21.0039C60.6445 21.4466 60.6348 21.7689 60.6152 21.9707C60.5957 22.1725 60.5794 22.3451 60.5664 22.4883C60.5599 22.5664 60.5534 22.6445 60.5469 22.7227C60.625 22.7878 60.7129 22.8203 60.8105 22.8203C60.9668 22.8203 61.0742 22.6999 61.1328 22.459C61.1914 22.2116 61.2207 21.7624 61.2207 21.1113V20.2617ZM57.5781 27.0098C56.8555 27.0098 56.2956 26.8177 55.8984 26.4336C55.5078 26.0495 55.3125 25.4701 55.3125 24.6953V15.9062C55.3125 15.4115 55.8073 14.9948 56.7969 14.6562C57.793 14.3112 58.903 14.1387 60.127 14.1387C62.2819 14.1387 63.9648 14.6595 65.1758 15.7012C66.4779 16.821 67.1289 18.4909 67.1289 20.7109C67.1289 22.7096 66.4974 24.2591 65.2344 25.3594C63.9779 26.4596 62.2493 27.0098 60.0488 27.0098H57.5781ZM74.3652 20.2617C74.3652 19.6107 74.3359 19.1647 74.2773 18.9238C74.2188 18.6764 74.1113 18.5527 73.9551 18.5527C73.8574 18.5527 73.7695 18.5853 73.6914 18.6504C73.7044 18.7676 73.724 18.9238 73.75 19.1191C73.776 19.3145 73.7891 19.7311 73.7891 20.3691V21.0039C73.7891 21.4466 73.7793 21.7689 73.7598 21.9707C73.7402 22.1725 73.724 22.3451 73.7109 22.4883C73.7044 22.5664 73.6979 22.6445 73.6914 22.7227C73.7695 22.7878 73.8574 22.8203 73.9551 22.8203C74.1113 22.8203 74.2188 22.6999 74.2773 22.459C74.3359 22.2116 74.3652 21.7624 74.3652 21.1113V20.2617ZM73.9746 27.3125C72.8158 27.3125 71.7513 27.0749 70.7812 26.5996C69.8177 26.1178 69.0397 25.3854 68.4473 24.4023C67.8548 23.4128 67.5586 22.179 67.5586 20.7012C67.5586 18.5592 68.2031 16.8861 69.4922 15.6816C70.638 14.6204 72.1126 14.0898 73.916 14.0898C75.8757 14.0898 77.4251 14.6986 78.5645 15.916C79.7103 17.127 80.2832 18.722 80.2832 20.7012C80.2832 22.9017 79.6712 24.5814 78.4473 25.7402C77.334 26.7884 75.8431 27.3125 73.9746 27.3125ZM87.2656 18.8652H93.0566C93.4277 19.4056 93.6133 20.0632 93.6133 20.8379C93.6133 21.6061 93.4538 22.2311 93.1348 22.7129H92.7344V25.6426C91.4518 26.7559 89.7591 27.3125 87.6562 27.3125C86.3737 27.3125 85.2344 27.0846 84.2383 26.6289C83.151 26.1406 82.3079 25.4277 81.709 24.4902C81.0514 23.4616 80.7227 22.1986 80.7227 20.7012C80.7227 18.5723 81.3607 16.9251 82.6367 15.7598C83.8477 14.6465 85.4883 14.0898 87.5586 14.0898C88.5807 14.0898 89.5443 14.2428 90.4492 14.5488C91.3607 14.8548 92.0801 15.2357 92.6074 15.6914C92.6074 16.082 92.5586 16.5605 92.4609 17.127C92.3698 17.6934 92.2526 18.1263 92.1094 18.4258H86.9629C86.7546 18.6471 86.556 18.9661 86.3672 19.3828C86.1849 19.7995 86.0938 20.278 86.0938 20.8184C86.0938 21.5605 86.2793 22.1432 86.6504 22.5664C86.9759 22.9505 87.3926 23.1426 87.9004 23.1426C88.1087 23.1426 88.2129 23.071 88.2129 22.9277V22.7031H88.1055C87.6758 22.7031 87.3177 22.5371 87.0312 22.2051C86.7513 21.8665 86.6113 21.3848 86.6113 20.7598C86.6113 19.9785 86.8294 19.347 87.2656 18.8652ZM99.1992 23.4453C99.4141 23.4062 99.5215 23.2988 99.5215 23.123C99.5215 22.9408 99.4629 22.7389 99.3457 22.5176C99.235 22.2897 99.069 22.0749 98.8477 21.873C98.2682 21.3522 97.4837 21.0918 96.4941 21.0918C96.0059 21.0918 95.5501 21.1732 95.127 21.3359C94.6777 21.1081 94.3197 20.7467 94.0527 20.252C93.7858 19.7572 93.6523 19.2233 93.6523 18.6504C93.6523 17.153 94.2773 15.9974 95.5273 15.1836C96.6016 14.487 97.9264 14.1387 99.502 14.1387C100.674 14.1387 101.66 14.2656 102.461 14.5195C103.262 14.7669 103.916 15.0859 104.424 15.4766C104.574 15.9062 104.648 16.3522 104.648 16.8145C104.648 17.2767 104.587 17.6966 104.463 18.0742C104.339 18.4518 104.16 18.7546 103.926 18.9824C103.704 18.8197 103.304 18.6536 102.725 18.4844C102.145 18.3151 101.618 18.2305 101.143 18.2305C100.667 18.2305 100.348 18.2598 100.186 18.3184C100.029 18.377 99.9512 18.4681 99.9512 18.5918C99.9512 18.6504 99.9609 18.7057 99.9805 18.7578C100.208 18.6992 100.501 18.6699 100.859 18.6699C102.129 18.6699 103.164 18.9694 103.965 19.5684C104.909 20.2845 105.381 21.3587 105.381 22.791C105.381 24.054 104.87 25.1022 103.848 25.9355C102.741 26.8275 101.253 27.2734 99.3848 27.2734C98.3561 27.2734 97.4642 27.1953 96.709 27.0391C95.9538 26.8893 95.2181 26.6224 94.502 26.2383C94.0137 25.5286 93.7695 24.8092 93.7695 24.0801C93.7695 23.3444 94.0202 22.7357 94.5215 22.2539C95.0228 21.7721 95.638 21.5312 96.3672 21.5312C97.1029 21.5312 97.7018 21.681 98.1641 21.9805C98.6328 22.2799 98.9779 22.7682 99.1992 23.4453ZM112.061 21.043C112.061 21.5052 111.992 21.9219 111.855 22.293C111.725 22.6576 111.52 23.0352 111.24 23.4258H106.025C105.485 22.6836 105.215 21.8893 105.215 21.043C105.215 20.5742 105.283 20.151 105.42 19.7734C105.557 19.3893 105.758 18.9987 106.025 18.6016H111.24C111.527 19.0182 111.735 19.4121 111.865 19.7832C111.995 20.1543 112.061 20.5742 112.061 21.043ZM117.939 20.0566C117.965 20.0762 118.04 20.0859 118.164 20.0859C118.288 20.0859 118.382 20.0371 118.447 19.9395C118.512 19.8418 118.545 19.6823 118.545 19.4609V19.1094C118.545 18.875 118.516 18.709 118.457 18.6113C118.405 18.5072 118.314 18.4551 118.184 18.4551C118.06 18.4551 117.975 18.4681 117.93 18.4941C117.936 18.5267 117.939 18.582 117.939 18.6602V20.0566ZM122.979 22.2832L124.668 24.0117C124.551 25.0273 124.229 25.8086 123.701 26.3555C123.18 26.9023 122.458 27.1758 121.533 27.1758C120.837 27.1758 120.231 27.0098 119.717 26.6777C119.059 26.2611 118.568 25.597 118.242 24.6855L117.891 23.7285C117.617 23.722 117.272 23.6862 116.855 23.6211C116.803 23.6732 116.777 23.7448 116.777 23.8359C116.777 24.0117 117.041 24.1159 117.568 24.1484L118.125 25.5547V26.3848C117.376 26.9121 116.416 27.1758 115.244 27.1758C114.404 27.1758 113.734 27.0033 113.232 26.6582C112.731 26.3132 112.48 25.8118 112.48 25.1543V15.877C112.48 15.5905 112.744 15.3138 113.271 15.0469C113.799 14.7734 114.489 14.5553 115.342 14.3926C116.195 14.2233 117.048 14.1387 117.9 14.1387C119.854 14.1387 121.38 14.5391 122.48 15.3398C123.639 16.1797 124.219 17.3613 124.219 18.8848C124.219 19.7572 123.971 20.5059 123.477 21.1309C122.988 21.7493 122.37 22.179 121.621 22.4199C121.621 22.6283 121.745 22.7324 121.992 22.7324C122.246 22.7324 122.575 22.5827 122.979 22.2832ZM131.416 21.043C131.416 21.5052 131.348 21.9219 131.211 22.293C131.081 22.6576 130.876 23.0352 130.596 23.4258H125.381C124.84 22.6836 124.57 21.8893 124.57 21.043C124.57 20.5742 124.639 20.151 124.775 19.7734C124.912 19.3893 125.114 18.9987 125.381 18.6016H130.596C130.882 19.0182 131.09 19.4121 131.221 19.7832C131.351 20.1543 131.416 20.5742 131.416 21.043ZM140.312 14.2266C141.094 14.2266 141.771 14.4382 142.344 14.8613C142.917 15.2845 143.203 15.8867 143.203 16.668V22.0977C143.203 23.7513 142.699 25.0273 141.689 25.9258C140.68 26.8177 139.284 27.2637 137.5 27.2637C135.723 27.2637 134.339 26.8242 133.35 25.9453C132.34 25.0664 131.836 23.7839 131.836 22.0977V15.1348C132.604 14.5228 133.493 14.2168 134.502 14.2168C135.348 14.2168 136.019 14.4414 136.514 14.8906C137.008 15.3333 137.256 16.0072 137.256 16.9121V22.6055C137.327 22.6576 137.409 22.6836 137.5 22.6836C137.598 22.6836 137.666 22.6608 137.705 22.6152C137.751 22.5632 137.773 22.4688 137.773 22.332V16.9023C137.773 16.4922 137.754 16.1667 137.715 15.9258C137.676 15.6849 137.598 15.444 137.48 15.2031C138.262 14.5521 139.206 14.2266 140.312 14.2266ZM149.18 23.4453C149.395 23.4062 149.502 23.2988 149.502 23.123C149.502 22.9408 149.443 22.7389 149.326 22.5176C149.215 22.2897 149.049 22.0749 148.828 21.873C148.249 21.3522 147.464 21.0918 146.475 21.0918C145.986 21.0918 145.531 21.1732 145.107 21.3359C144.658 21.1081 144.3 20.7467 144.033 20.252C143.766 19.7572 143.633 19.2233 143.633 18.6504C143.633 17.153 144.258 15.9974 145.508 15.1836C146.582 14.487 147.907 14.1387 149.482 14.1387C150.654 14.1387 151.641 14.2656 152.441 14.5195C153.242 14.7669 153.896 15.0859 154.404 15.4766C154.554 15.9062 154.629 16.3522 154.629 16.8145C154.629 17.2767 154.567 17.6966 154.443 18.0742C154.32 18.4518 154.141 18.7546 153.906 18.9824C153.685 18.8197 153.285 18.6536 152.705 18.4844C152.126 18.3151 151.598 18.2305 151.123 18.2305C150.648 18.2305 150.329 18.2598 150.166 18.3184C150.01 18.377 149.932 18.4681 149.932 18.5918C149.932 18.6504 149.941 18.7057 149.961 18.7578C150.189 18.6992 150.482 18.6699 150.84 18.6699C152.109 18.6699 153.145 18.9694 153.945 19.5684C154.889 20.2845 155.361 21.3587 155.361 22.791C155.361 24.054 154.85 25.1022 153.828 25.9355C152.721 26.8275 151.234 27.2734 149.365 27.2734C148.337 27.2734 147.445 27.1953 146.689 27.0391C145.934 26.8893 145.199 26.6224 144.482 26.2383C143.994 25.5286 143.75 24.8092 143.75 24.0801C143.75 23.3444 144.001 22.7357 144.502 22.2539C145.003 21.7721 145.618 21.5312 146.348 21.5312C147.083 21.5312 147.682 21.681 148.145 21.9805C148.613 22.2799 148.958 22.7682 149.18 23.4453Z" fill="#183A1D"/>
<defs>
<clipPath id="clip0_1_6">
<rect width="50" height="36.6016" fill="white"/>
</clipPath>
</defs>
</svg>
